<?xml version="1.0" encoding="UTF-8"?>
<!DOCTYPE svg PUBLIC "-//W3C//DTD SVG 1.1//EN" "http://www.w3.org/Graphics/SVG/1.1/DTD/svg11.dtd">
<!-- Creator: CorelDRAW (Evaluation Version) -->
<svg
  xmlns="http://www.w3.org/2000/svg"
  xml:space="preserve"
  width="279.4mm"
  height="279.4mm"
  version="1.1"
  style="
    shape-rendering: geometricPrecision;
    text-rendering: geometricPrecision;
    image-rendering: optimizeQuality;
    fill-rule: evenodd;
    clip-rule: evenodd;
  "
  viewBox="0 0 27940 27940"
  xmlns:xlink="http://www.w3.org/1999/xlink"
  xmlns:xodm="http://www.corel.com/coreldraw/odm/2003"
>
  <defs>
    <style type="text/css">
      <![CDATA[
       .fil0 {fill:white}
      ]]>
    </style>
  </defs>
  <g id="Layer_x0020_1">
    <metadata id="CorelCorpID_0Corel-Layer" />
    <path
      class="fil0"
      d="M13970 0c7683.5,0 13970,6286.5 13970,13970 0,7683.5 -6286.5,13970 -13970,13970 -7683.5,0 -13970,-6286.5 -13970,-13970 0,-7683.5 6286.5,-13970 13970,-13970zm-6044.99 24069.62c2310.36,-2335.39 3830.47,-5454.16 4126.25,-8922.21l3837.51 0c295.77,3468.05 1815.87,6586.8 4126.23,8922.19l1862.77 -1795.45c-1860.48,-1870.1 -3101.74,-4356.79 -3390.41,-7126.74l2951.85 0 0 -2489.74 -2951.85 0c281.79,-2703.93 1471.31,-5137.98 3258.47,-6992.01l-1862.58 -1795.28c-2236.34,2319.96 -3704.36,5385.6 -3994.48,8787.29l-3837.51 0c-290.12,-3401.69 -1758.16,-6467.33 -3994.5,-8787.29l-1862.58 1795.28c1787.16,1854.03 2976.7,4288.06 3258.49,6992.01l-2951.87 0 0 2489.74 2951.87 0c-288.67,2769.95 -1529.95,5256.66 -3390.43,7126.74l1862.77 1795.47z"
    />
  </g>
</svg>
